
<svg xmlns="http://www.w3.org/2000/svg" viewBox="0 0 356.64 74.22">
  <path d="M354.6,70a2.49,2.49,0,0,1-2.68-1.58v-9c0-3-.81-5.17-2.41-6.61s-3.89-2.16-6.85-2.16a16.63,16.63,0,0,0-4.92.71,11.84,11.84,0,0,0-4,2.06l1.63,2.94a9.9,9.9,0,0,1,3.1-1.7,11.55,11.55,0,0,1,3.76-.63,6.11,6.11,0,0,1,4.34,1.37A5,5,0,0,1,348,59.28v.78h-6.2a12.47,12.47,0,0,0-5.12.86A5.72,5.72,0,0,0,334,63.2a6.14,6.14,0,0,0-.84,3.18,5.76,5.76,0,0,0,1,3.29,6.45,6.45,0,0,0,2.79,2.26,10.28,10.28,0,0,0,4.22.82A9.79,9.79,0,0,0,346,71.62a6.07,6.07,0,0,0,2.72-3l.2.24c.35,2.25,2,3.64,4.74,3.64a8.22,8.22,0,0,0,2.7-.45l.24-2.4A5.61,5.61,0,0,1,354.6,70Zm-9-1.26a7.42,7.42,0,0,1-3.85,1,5.68,5.68,0,0,1-3.51-1A3.06,3.06,0,0,1,337,66.22a3.17,3.17,0,0,1,1-2.37c.68-.65,2-1,4-1h6v3A5.59,5.59,0,0,1,345.61,68.75Z"/>
  <path d="M318.8,50.68a10.23,10.23,0,0,1,4.67,1,7.27,7.27,0,0,1,3.16,3.1,10.84,10.84,0,0,1,1.14,5.26V72.5h-3.91v-12a6.56,6.56,0,0,0-1.53-4.73,5.67,5.67,0,0,0-4.31-1.6,7.77,7.77,0,0,0-3.63.82A5.54,5.54,0,0,0,312,57.41a8.4,8.4,0,0,0-.84,4V72.5h-3.92V50.88H311v5.83l-.62-1.55a7.55,7.55,0,0,1,3.27-3.3A10.69,10.69,0,0,1,318.8,50.68Z"/>
  <path d="M299,46.72a2.59,2.59,0,0,1-1.89-.74,2.37,2.37,0,0,1-.76-1.79,2.45,2.45,0,0,1,.76-1.84,2.59,2.59,0,0,1,1.89-.73,2.68,2.68,0,0,1,1.9.71,2.36,2.36,0,0,1,.75,1.78A2.55,2.55,0,0,1,299,46.72Zm-2,25.78V50.88H301V72.5Z"/>
  <path d="M281.77,50.68a10.2,10.2,0,0,1,4.67,1,7.27,7.27,0,0,1,3.16,3.1,10.72,10.72,0,0,1,1.15,5.26V72.5h-3.92v-12a6.56,6.56,0,0,0-1.53-4.73,5.65,5.65,0,0,0-4.3-1.6,7.71,7.71,0,0,0-3.63.82A5.56,5.56,0,0,0,275,57.41a8.4,8.4,0,0,0-.84,4V72.5h-3.91V42.23h3.91V56.71l-.77-1.55a7.53,7.53,0,0,1,3.26-3.3A10.69,10.69,0,0,1,281.77,50.68Z"/>
  <path d="M254.28,72.83a16.35,16.35,0,0,1-6-1.08,14,14,0,0,1-4.77-3.06,15,15,0,0,1-3.16-16.3,14.2,14.2,0,0,1,8-7.69,17.24,17.24,0,0,1,12.12,0,12.56,12.56,0,0,1,4.75,3.33l-2.65,2.57a10.41,10.41,0,0,0-3.67-2.55,11.38,11.38,0,0,0-4.37-.84,12,12,0,0,0-4.47.82,10.7,10.7,0,0,0-3.57,2.28,10.4,10.4,0,0,0-2.34,3.49,11.87,11.87,0,0,0,0,8.77,10.4,10.4,0,0,0,2.34,3.49A10.7,10.7,0,0,0,250,68.38a12.16,12.16,0,0,0,4.47.82,11.38,11.38,0,0,0,4.37-.84,10.4,10.4,0,0,0,3.67-2.59l2.65,2.57a12.83,12.83,0,0,1-4.75,3.35A16.13,16.13,0,0,1,254.28,72.83Z"/>
  <path d="M165.67,5.7s-4.44,1.8-9.57,7.48S147.93,25.24,150.15,27c.83.62,2.84.76,6.37-2.42a29.21,29.21,0,0,0,7.55-10.47c2.36-5.68,1.6-8.31,1.6-8.38M193.86,16C188.11,13,184,9.44,179.59,7.22c-4.16-2.14-6.86-3-10.18-2.56A10.1,10.1,0,0,0,168,5s1.73,5.89-5.13,15.86-13.3,10-15.1,7.21.55-8.87,4.57-14.13c4.23-5.55,11.71-10.12,11.71-10.12s-2.35-1.46-8.24,1.87c-5.68,3.19-15.52,11-24.67,23.9s-11,20.1-12.26,25.71S118.76,67,125,67s13.51-9.49,15.52-12.82c3.81-6.17,6.3-15.59,1.1-14.27-2.56.62-4.64,3.46-5.89,6.16a26.07,26.07,0,0,0-1.87,5.48,22.57,22.57,0,0,0-5.05,2.91A33.8,33.8,0,0,0,124,58.63s0-4.5,3.6-11.78S137.74,36.25,141.49,36c3.32-.28,7.69,2.56,4,13.09s-14.62,23.28-26,23.42c-10.6.14-17.53-13.37-2.77-36.93C133,9.51,152.09,1.54,158.32.64s8.25,1.87,8.25,1.87A26.54,26.54,0,0,1,178.34.57c7.56.49,13.45,5.89,21.21,9.63-2,1.87-4,3.88-5.69,5.75M228,7.22c-5.26,3.4-12.54,6.45-19.47,5.76-1.73,1.8-3.67,3.94-5.54,6.23,12.12,2.43,22.73-5.13,28.34-11.5A37.71,37.71,0,0,0,236.54.16,46.14,46.14,0,0,1,228,7.22M211.81,41.31c.07-.14.14-.34.21-.48a1.18,1.18,0,0,0-1.11-1c-1.18-.07-2.7.14-6.86,4.71A65,65,0,0,0,195.25,57c-2.36,4.3-3.33,7.55-1.94,8.38a2.1,2.1,0,0,0,1.45.14c.91-.21,1.94-1.11,3.54-2.91.76-.83,1.59-2.08,2.56-3.39,2.7-3.81,9.56-15.52,10.95-17.88m-42.89,5c.69-1.8,1.6-5.33-.28-6.72s-6.92,2-7,5.54,3.53,5.27,4.36,5.48c.49.13.63.13.9-.28a21.57,21.57,0,0,0,2-4m-3.74,6.58a13.85,13.85,0,0,1-3.46-2.21,11.25,11.25,0,0,1-2.57-3.12c-.07-.14-.14,0-.21.07-1.1,1.38-2.07,2.84-3,4.29-2.71,4-6.72,12-3.05,13.37,2.35.91,6.3-3.25,8.45-6a55.76,55.76,0,0,0,3.95-6c.14-.28.07-.28-.07-.35m41.92,9.36c-1,1.59-2.15,4.71,1.17,2.77,4-2.36,9.77-11.09,9.77-11.09h2.64a97.92,97.92,0,0,1-7.9,10.39c-4.09,4.58-9.08,8.67-12.61,8.25-4.09-.49-2.84-5.89-2.84-5.89s-5.89,6.24-10,5.82c-5.47-.62-3.81-7.41-3.81-7.41s-6.24,7.62-10.46,7.41c-6.65-.42-5-8.45-3.12-14.13,1-3,1.94-5.41,1.94-5.41l-2.08.42c-.76.14-2.08.21-2.08.21s-2.77,4.85-5,7.82-11.64,13-17.12,11c-5.12-1.87-3.39-9.7-.41-15.93,4.36-9.08,16.56-22.11,23.62-20.37,7.28,1.8.14,15.1.14,15.1s0,.07.07.07h0a3.12,3.12,0,0,0,1.39-.07,21.42,21.42,0,0,0,2.7-.83S180.49,35,188.6,25,212.92-2.41,219.22,1.75c1.53,1,.83,4.57-1.25,8.87-.9.28-1.87.55-2.84.76a25.11,25.11,0,0,0,2.64-6.16c1-5.2-11.16,5.75-19.89,17.52A165.55,165.55,0,0,0,184,45.19a42.51,42.51,0,0,0,4.5-3.18,128.88,128.88,0,0,0,11-10.26,115.15,115.15,0,0,0,9.36-10.81c1-.07,1.87-.14,2.77-.27a125.82,125.82,0,0,1-10.32,12.19c-3.47,3.46-7.21,7.27-10.47,10a87.2,87.2,0,0,1-9.14,6.79s-7.55,15.31-3.47,16.28c2.43.55,7.21-6.79,7.21-6.79s6.24-9.56,10.05-13.86c5.12-5.82,9.56-9.21,14-9.28,2.57-.07,4.09,2.7,4.09,2.7l1.25-1.87h7.48c-.14,0-14.07,23.62-15.24,25.43M228,7.22c-5.26,3.4-12.54,6.45-19.47,5.76-1.73,1.8-3.67,3.94-5.54,6.23,12.12,2.43,22.73-5.13,28.34-11.5A37.71,37.71,0,0,0,236.54.16,46.14,46.14,0,0,1,228,7.22M123.12,18.79h-7.06l-4,6.52h7.07ZM89.59,41.24c3-4.15,11.36-18.63,11.36-18.63a1.17,1.17,0,0,0-1.1-1c-1.18-.07-3,.34-6.86,5.12s-6.79,8.59-8.94,12.54c-2.36,4.3-3.4,7.35-2,8.18a2.1,2.1,0,0,0,1.45.14c.91-.21,2-1.11,3.61-2.91.62-.9,1.45-2.08,2.49-3.4m-38.1-19.6c-1.94-1.46-6.93,2-7,5.54s4.5,4.64,5.12,4.71a.67.67,0,0,0,.7-.28,26.77,26.77,0,0,0,1.45-3.18c.7-1.88,1.53-5.41-.27-6.79m-3,12.47a15.9,15.9,0,0,1-3.88-1.74,8.47,8.47,0,0,1-2.78-3c-.06-.14-.13,0-.2.07s-.49.62-3.12,4.5-6.65,11.92-2.91,13.3c2.35.9,6.37-3.25,8.52-6a79.09,79.09,0,0,0,4.5-6.72c.14-.2,0-.27-.13-.34m58,2.42h2.63s-13,18.85-20.37,17.95c-4.09-.49-2.91-5.55-2.91-5.55S80,55.72,74.76,54.34C70,53.09,73,45.12,73,45.12c-.55.21-10.94,11.92-18.29,9.15-7.62-3-3.67-12.75-2.22-15.73,1.25-2.49,2.64-4.92,2.64-4.92s-1.18.35-1.94.49l-1.8.34s-3.61,5.89-5.82,8.8-11.64,13-17.19,11-4.15-9.77-1-15.94c5.06-10,17.05-22.24,24.25-20.37s1.25,13.65,1.25,13.65,1.46.21,4.92-2.21c5-3.4,11.57-12.61,18.78-11.51,3.32.49,6.51,3.95,2.21,10.47-1.38,2.07-3.67,4-5.4,2.14-1.11-1.17-.14-3.25,1-4.71a4.25,4.25,0,0,1,3.88-1.73s1.18-2.7-1.8-2.63c-2.43.07-8.59,5.68-12.06,11.43-3.32,5.33-8.1,14.27-3.32,16.21C65.55,50.87,74,40.83,78,35.56s12.82-17.18,20.3-17.67A5,5,0,0,1,102.34,20l.83-1.38h7.48S96.59,42.14,95.48,44c-.83,1.38-2,4.5,1.18,2.77s9.84-10.19,9.84-10.19m-4.09,37.69a30.63,30.63,0,0,0-18.78-5.47,11.52,11.52,0,0,0-9.14,5c-2.84-5-8.52-8-17.25-8-14.07.14-28.06,6.65-39.15,6.65C7.49,72.42-.27,65.77,0,53.85.49,33.07,18,14.36,31.18,5.91,38.74,1.06,45-.4,49.2.09c3,.34,6.65,3.81,4.36,8.94-3.39,7.55-8,6.86-7.83,3.32a5.78,5.78,0,0,1,2.85-4.57,7,7,0,0,1,2.7-.69c.69-.56,1.18-4.65-4.23-3.33S35.13,10.41,28.9,17.27,13,37.09,10.68,50.67c-1.11,6.3-.35,17.8,14.55,17.66,12.68-.14,31.38-8.45,48.56-8.31a33.27,33.27,0,0,1,17,4.64c4.43,2.84,9.77,6.86,11.64,9.56"/>
</svg>